<svg xmlns="http://www.w3.org/2000/svg" width="210" height="37" viewBox="0 0 210 37" fill="none"><path d="M140.541 31.4006C140.321 31.4022 140.109 31.474 139.937 31.6046C139.765 31.7352 139.644 31.9171 139.592 32.1212C139.541 32.3253 139.563 32.5399 139.654 32.7307C139.746 32.9216 139.901 33.0777 140.096 33.1742V34.289H140.912V33.2093C141.123 33.1268 141.297 32.9771 141.405 32.7856C141.513 32.5941 141.548 32.3727 141.504 32.1593C141.46 31.9458 141.34 31.7535 141.165 31.6152C140.989 31.4768 140.769 31.401 140.541 31.4006Z" fill="black"></path><path d="M143.768 29.2217V27.5534C143.785 26.7083 143.452 25.8909 142.84 25.2802C142.228 24.6695 141.389 24.3151 140.504 24.2947C139.62 24.3151 138.78 24.6695 138.168 25.2802C137.557 25.8909 137.223 26.7083 137.241 27.5534V29.2217H136.017V35.8483C136.017 36.0551 136.103 36.2534 136.256 36.3996C136.409 36.5458 136.617 36.6279 136.833 36.6279H144.175C144.392 36.6279 144.599 36.5458 144.752 36.3996C144.905 36.2534 144.991 36.0551 144.991 35.8483V29.2217H143.768ZM138.057 27.5534C138.039 26.915 138.287 26.2959 138.745 25.8314C139.204 25.3668 139.836 25.0947 140.504 25.0743C141.172 25.0947 141.805 25.3668 142.263 25.8314C142.722 26.2959 142.969 26.915 142.952 27.5534V29.2217H138.057V27.5534ZM136.833 35.8483V30.0013H144.175V35.8483H136.833Z" fill="black"></path><path d="M46.7278 30.261C47.3145 30.261 47.8145 30.0519 48.1461 29.6641L47.7175 29.256C47.4574 29.5417 47.136 29.6795 46.7635 29.6795C46.0238 29.6795 45.4881 29.1591 45.4881 28.4245C45.4881 27.6898 46.0238 27.1695 46.7635 27.1695C47.136 27.1695 47.4574 27.3072 47.7175 27.5878L48.1461 27.1848C47.8145 26.7971 47.3145 26.5879 46.7329 26.5879C45.6361 26.5879 44.8198 27.3582 44.8198 28.4245C44.8198 29.4907 45.6361 30.261 46.7278 30.261Z" fill="black"></path><path d="M49.8451 30.2457C50.6919 30.2457 51.299 29.6642 51.299 28.8479C51.299 28.0316 50.6919 27.4552 49.8451 27.4552C49.0084 27.4552 48.3962 28.0316 48.3962 28.8479C48.3962 29.6642 49.0084 30.2457 49.8451 30.2457ZM49.8451 29.6999C49.3859 29.6999 49.039 29.3683 49.039 28.8479C49.039 28.3275 49.3859 27.9959 49.8451 27.9959C50.3093 27.9959 50.6562 28.3275 50.6562 28.8479C50.6562 29.3683 50.3093 29.6999 49.8451 29.6999Z" fill="black"></path><path d="M55.3473 27.4552C54.9137 27.4552 54.5463 27.6286 54.327 27.9092C54.1382 27.6031 53.8066 27.4552 53.4087 27.4552C53.0363 27.4552 52.72 27.5878 52.5159 27.8327V27.4858H51.9088V30.21H52.5465V28.8275C52.5465 28.2867 52.8322 28.0112 53.2556 28.0112C53.6434 28.0112 53.8678 28.2459 53.8678 28.7306V30.21H54.5055V28.8275C54.5055 28.2867 54.7963 28.0112 55.2146 28.0112C55.6024 28.0112 55.8268 28.2459 55.8268 28.7306V30.21H56.4645V28.6489C56.4645 27.8276 56.0054 27.4552 55.3473 27.4552Z" fill="black"></path><path d="M58.7895 27.4552C58.4171 27.4552 58.1008 27.5827 57.8865 27.8429V27.4858H57.2794V31.1997H57.9171V29.8784C58.1365 30.1284 58.4426 30.2457 58.7895 30.2457C59.5854 30.2457 60.172 29.6948 60.172 28.8479C60.172 28.0061 59.5854 27.4552 58.7895 27.4552ZM58.7181 29.6999C58.2589 29.6999 57.9069 29.3683 57.9069 28.8479C57.9069 28.3275 58.2589 27.9959 58.7181 27.9959C59.1772 27.9959 59.5241 28.3275 59.5241 28.8479C59.5241 29.3683 59.1772 29.6999 58.7181 29.6999Z" fill="black"></path><path d="M61.3839 27.8837V27.4858H60.7768V30.21H61.4145V28.8887C61.4145 28.3326 61.7206 28.0469 62.2053 28.0469C62.2512 28.0469 62.2971 28.052 62.3532 28.0623V27.4552C61.8992 27.4552 61.5676 27.598 61.3839 27.8837Z" fill="black"></path><path d="M63.92 27.4552C63.4812 27.4552 63.0578 27.5674 62.767 27.7919L63.017 28.2561C63.221 28.0878 63.5373 27.9857 63.8434 27.9857C64.2975 27.9857 64.5219 28.2051 64.5219 28.5775V28.6183H63.8179C62.9915 28.6183 62.6854 28.9754 62.6854 29.4295C62.6854 29.9039 63.0782 30.2457 63.7006 30.2457C64.1087 30.2457 64.4046 30.1131 64.5577 29.8784V30.21H65.1596V28.6132C65.1596 27.8276 64.7056 27.4552 63.92 27.4552ZM63.8332 29.7815C63.5067 29.7815 63.3129 29.6335 63.3129 29.404C63.3129 29.205 63.4302 29.0418 63.8638 29.0418H64.5219V29.3581C64.4148 29.6386 64.1444 29.7815 63.8332 29.7815Z" fill="black"></path><path d="M46.182 35.101C47.1615 35.101 47.6257 34.6113 47.6257 34.0399C47.6257 32.7288 45.5086 33.2236 45.5086 32.4635C45.5086 32.1931 45.733 31.9788 46.284 31.9788C46.5952 31.9788 46.9472 32.0707 47.2686 32.2594L47.4778 31.7442C47.1666 31.5401 46.7176 31.4279 46.2891 31.4279C45.3096 31.4279 44.8504 31.9176 44.8504 32.4941C44.8504 33.8205 46.9727 33.3155 46.9727 34.0858C46.9727 34.3511 46.738 34.55 46.182 34.55C45.7432 34.55 45.2892 34.3868 45.0035 34.1572L44.7739 34.6725C45.0698 34.9276 45.6259 35.101 46.182 35.101Z" fill="black"></path><path d="M50.7831 33.7032C50.7831 32.8512 50.2015 32.2951 49.4057 32.2951C48.5945 32.2951 47.9977 32.8767 47.9977 33.6879C47.9977 34.499 48.5894 35.0857 49.5026 35.0857C49.972 35.0857 50.3546 34.9327 50.5995 34.6419L50.2577 34.249C50.0638 34.448 49.824 34.5449 49.5179 34.5449C49.0435 34.5449 48.7119 34.2899 48.6354 33.8919H50.7729C50.778 33.8307 50.7831 33.7542 50.7831 33.7032ZM49.4057 32.8053C49.824 32.8053 50.125 33.0757 50.176 33.4685H48.6302C48.6915 33.0706 48.9925 32.8053 49.4057 32.8053Z" fill="black"></path><path d="M53.4924 32.3257V32.688C53.268 32.4176 52.9312 32.2951 52.5486 32.2951C51.7681 32.2951 51.1712 32.8155 51.1712 33.6062C51.1712 34.397 51.7681 34.9276 52.5486 34.9276C52.9159 34.9276 53.2373 34.8102 53.4618 34.5653V34.7082C53.4618 35.2592 53.1965 35.5346 52.5945 35.5346C52.217 35.5346 51.8293 35.4071 51.5895 35.2081L51.3038 35.6877C51.615 35.9428 52.1201 36.0754 52.6303 36.0754C53.5843 36.0754 54.0995 35.6265 54.0995 34.6368V32.3257H53.4924ZM52.6456 34.3868C52.1609 34.3868 51.814 34.0705 51.814 33.6062C51.814 33.1471 52.1609 32.8359 52.6456 32.8359C53.1251 32.8359 53.472 33.1471 53.472 33.6062C53.472 34.0705 53.1251 34.3868 52.6456 34.3868Z" fill="black"></path><path d="M56.9377 32.3257V33.7032C56.9377 34.249 56.6367 34.5245 56.1929 34.5245C55.7899 34.5245 55.5552 34.2899 55.5552 33.795V32.3257H54.9175V33.8817C54.9175 34.7031 55.3919 35.0857 56.0908 35.0857C56.4429 35.0857 56.7643 34.9531 56.9683 34.7031V35.05H57.5754V32.3257H56.9377Z" fill="black"></path><path d="M59.0174 32.7237V32.3257H58.4104V35.05H59.0481V33.7287C59.0481 33.1726 59.3542 32.8869 59.8388 32.8869C59.8847 32.8869 59.9306 32.892 59.9867 32.9022V32.2951C59.5327 32.2951 59.2011 32.438 59.0174 32.7237Z" fill="black"></path><path d="M61.5535 32.2951C61.1148 32.2951 60.6913 32.4074 60.4005 32.6318L60.6505 33.0961C60.8546 32.9277 61.1709 32.8257 61.477 32.8257C61.931 32.8257 62.1555 33.0451 62.1555 33.4175V33.4583H61.4515C60.625 33.4583 60.3189 33.8154 60.3189 34.2694C60.3189 34.7439 60.7117 35.0857 61.3341 35.0857C61.7423 35.0857 62.0381 34.9531 62.1912 34.7184V35.05H62.7932V33.4532C62.7932 32.6675 62.3391 32.2951 61.5535 32.2951ZM61.4668 34.6215C61.1403 34.6215 60.9464 34.4735 60.9464 34.2439C60.9464 34.045 61.0637 33.8817 61.4974 33.8817H62.1555V34.198C62.0484 34.4786 61.778 34.6215 61.4668 34.6215Z" fill="black"></path><path d="M97.8084 30.2609C98.7879 30.2609 99.2522 29.7712 99.2522 29.1998C99.2522 27.8887 97.135 28.3835 97.135 27.6234C97.135 27.353 97.3595 27.1388 97.9105 27.1388C98.2217 27.1388 98.5737 27.2306 98.8951 27.4193L99.1042 26.9041C98.793 26.7 98.3441 26.5878 97.9156 26.5878C96.9361 26.5878 96.4769 27.0775 96.4769 27.654C96.4769 28.9804 98.5992 28.4754 98.5992 29.2457C98.5992 29.511 98.3645 29.71 97.8084 29.71C97.3697 29.71 96.9157 29.5467 96.63 29.3171L96.4004 29.8324C96.6963 30.0875 97.2524 30.2609 97.8084 30.2609Z" fill="black"></path><path d="M100.889 27.4551C100.451 27.4551 100.027 27.5673 99.7364 27.7918L99.9863 28.256C100.19 28.0877 100.507 27.9856 100.813 27.9856C101.267 27.9856 101.491 28.205 101.491 28.5774V28.6182H100.787C99.9608 28.6182 99.6547 28.9753 99.6547 29.4294C99.6547 29.9038 100.048 30.2456 100.67 30.2456C101.078 30.2456 101.374 30.113 101.527 29.8783V30.2099H102.129V28.6131C102.129 27.8275 101.675 27.4551 100.889 27.4551ZM100.803 29.7814C100.476 29.7814 100.282 29.6334 100.282 29.4039C100.282 29.2049 100.4 29.0416 100.833 29.0416H101.491V29.3579C101.384 29.6385 101.114 29.7814 100.803 29.7814Z" fill="black"></path><path d="M104.406 29.6079C104.31 29.6844 104.182 29.7202 104.049 29.7202C103.804 29.7202 103.672 29.5773 103.672 29.312V28.0162H104.401V27.5061H103.672V26.8837H103.034V27.5061H102.585V28.0162H103.034V29.3273C103.034 29.9293 103.376 30.2456 103.973 30.2456C104.202 30.2456 104.432 30.1844 104.585 30.062L104.406 29.6079Z" fill="black"></path><path d="M105.431 27.0367C105.671 27.0367 105.839 26.8633 105.839 26.6388C105.839 26.4296 105.666 26.2715 105.431 26.2715C105.196 26.2715 105.023 26.4398 105.023 26.6541C105.023 26.8684 105.196 27.0367 105.431 27.0367ZM105.11 30.2099H105.747V27.4857H105.11V30.2099Z" fill="black"></path><path d="M107.426 30.2456C108.191 30.2456 108.661 29.914 108.661 29.4039C108.661 28.3376 106.977 28.8274 106.977 28.2764C106.977 28.0979 107.161 27.9703 107.548 27.9703C107.809 27.9703 108.069 28.0213 108.329 28.1744L108.574 27.6897C108.329 27.5418 107.916 27.4551 107.554 27.4551C106.819 27.4551 106.355 27.7918 106.355 28.307C106.355 29.3937 108.038 28.9039 108.038 29.4243C108.038 29.613 107.87 29.7253 107.467 29.7253C107.125 29.7253 106.758 29.613 106.518 29.4549L106.273 29.9395C106.518 30.113 106.972 30.2456 107.426 30.2456Z" fill="black"></path><path d="M110.317 26.9041C110.449 26.9041 110.572 26.95 110.669 27.0163L110.847 26.5368C110.705 26.4347 110.49 26.3888 110.271 26.3888C109.638 26.3888 109.297 26.7612 109.297 27.3326V27.5061H108.848V28.0162H109.297V30.2099H109.934V28.0162H110.664V27.5061H109.914V27.3428C109.914 27.052 110.052 26.9041 110.317 26.9041Z" fill="black"></path><path d="M112.084 27.4551C111.645 27.4551 111.222 27.5673 110.931 27.7918L111.181 28.256C111.385 28.0877 111.701 27.9856 112.007 27.9856C112.461 27.9856 112.686 28.205 112.686 28.5774V28.6182H111.982C111.155 28.6182 110.849 28.9753 110.849 29.4294C110.849 29.9038 111.242 30.2456 111.865 30.2456C112.273 30.2456 112.569 30.113 112.722 29.8783V30.2099H113.324V28.6131C113.324 27.8275 112.87 27.4551 112.084 27.4551ZM111.997 29.7814C111.671 29.7814 111.477 29.6334 111.477 29.4039C111.477 29.2049 111.594 29.0416 112.028 29.0416H112.686V29.3579C112.579 29.6385 112.308 29.7814 111.997 29.7814Z" fill="black"></path><path d="M115.412 29.6998C114.942 29.6998 114.585 29.3784 114.585 28.8478C114.585 28.3223 114.942 27.9958 115.412 27.9958C115.682 27.9958 115.927 28.1132 116.09 28.3733L116.58 28.0877C116.371 27.6744 115.947 27.4551 115.417 27.4551C114.555 27.4551 113.942 28.0315 113.942 28.8478C113.942 29.5671 114.417 30.1028 115.116 30.2201L114.988 30.6946H115.146C115.34 30.6946 115.417 30.766 115.417 30.8629C115.417 30.9752 115.335 31.0466 115.146 31.0466C115.019 31.0466 114.907 31.0211 114.8 30.9649L114.682 31.2659C114.81 31.3374 114.968 31.3731 115.152 31.3731C115.57 31.3731 115.845 31.1843 115.845 30.8884C115.845 30.6691 115.702 30.4956 115.402 30.4599L115.458 30.2456C115.968 30.2354 116.376 30.0058 116.58 29.6079L116.09 29.3222C115.927 29.5824 115.682 29.6998 115.412 29.6998Z" fill="black"></path><path d="M117.902 26.7765C118.085 26.7765 118.259 27.1132 118.595 27.1132C118.922 27.1132 119.136 26.8429 119.146 26.4449H118.805C118.794 26.6286 118.697 26.7357 118.555 26.7357C118.371 26.7357 118.197 26.399 117.861 26.399C117.534 26.399 117.32 26.6643 117.31 27.0826H117.652C117.662 26.8888 117.759 26.7765 117.902 26.7765ZM118.172 27.4551C117.733 27.4551 117.31 27.5673 117.019 27.7918L117.269 28.256C117.473 28.0877 117.789 27.9856 118.095 27.9856C118.549 27.9856 118.774 28.205 118.774 28.5774V28.6182H118.07C117.243 28.6182 116.937 28.9753 116.937 29.4294C116.937 29.9038 117.33 30.2456 117.953 30.2456C118.361 30.2456 118.657 30.113 118.81 29.8783V30.2099H119.412V28.6131C119.412 27.8275 118.958 27.4551 118.172 27.4551ZM118.085 29.7814C117.759 29.7814 117.565 29.6334 117.565 29.4039C117.565 29.2049 117.682 29.0416 118.116 29.0416H118.774V29.3579C118.667 29.6385 118.396 29.7814 118.085 29.7814Z" fill="black"></path><path d="M121.479 30.2456C122.326 30.2456 122.933 29.664 122.933 28.8478C122.933 28.0315 122.326 27.4551 121.479 27.4551C120.643 27.4551 120.03 28.0315 120.03 28.8478C120.03 29.664 120.643 30.2456 121.479 30.2456ZM121.479 29.6998C121.02 29.6998 120.673 29.3681 120.673 28.8478C120.673 28.3274 121.02 27.9958 121.479 27.9958C121.944 27.9958 122.29 28.3274 122.29 28.8478C122.29 29.3681 121.944 29.6998 121.479 29.6998Z" fill="black"></path><path d="M99.1399 34.3357C98.9104 34.4683 98.6604 34.5193 98.4053 34.5193C97.6503 34.5193 97.1146 33.9888 97.1146 33.2643C97.1146 32.5246 97.6503 32.0093 98.4104 32.0093C98.793 32.0093 99.1144 32.1369 99.395 32.4175L99.8134 32.0093C99.4766 31.6267 98.9767 31.4278 98.3798 31.4278C97.2626 31.4278 96.4463 32.1981 96.4463 33.2643C96.4463 34.3306 97.2626 35.1009 98.3696 35.1009C98.8747 35.1009 99.395 34.9479 99.7674 34.6469V33.2235H99.1399V34.3357Z" fill="black"></path><path d="M101.622 32.295C101.183 32.295 100.76 32.4073 100.469 32.6317L100.719 33.096C100.923 32.9276 101.239 32.8256 101.545 32.8256C101.999 32.8256 102.224 33.045 102.224 33.4174V33.4582H101.52C100.693 33.4582 100.387 33.8153 100.387 34.2693C100.387 34.7438 100.78 35.0856 101.402 35.0856C101.81 35.0856 102.106 34.953 102.259 34.7183V35.0499H102.861V33.4531C102.861 32.6674 102.407 32.295 101.622 32.295ZM101.535 34.6213C101.208 34.6213 101.015 34.4734 101.015 34.2438C101.015 34.0449 101.132 33.8816 101.566 33.8816H102.224V34.1979C102.117 34.4785 101.846 34.6213 101.535 34.6213Z" fill="black"></path><path d="M104.287 32.7236V32.3256H103.68V35.0499H104.317V33.7286C104.317 33.1725 104.624 32.8868 105.108 32.8868C105.154 32.8868 105.2 32.8919 105.256 32.9021V32.295C104.802 32.295 104.471 32.4379 104.287 32.7236Z" fill="black"></path><path d="M106.823 32.295C106.384 32.295 105.961 32.4073 105.67 32.6317L105.92 33.096C106.124 32.9276 106.44 32.8256 106.746 32.8256C107.2 32.8256 107.425 33.045 107.425 33.4174V33.4582H106.721C105.894 33.4582 105.588 33.8153 105.588 34.2693C105.588 34.7438 105.981 35.0856 106.604 35.0856C107.012 35.0856 107.308 34.953 107.461 34.7183V35.0499H108.063V33.4531C108.063 32.6674 107.609 32.295 106.823 32.295ZM106.736 34.6213C106.41 34.6213 106.216 34.4734 106.216 34.2438C106.216 34.0449 106.333 33.8816 106.767 33.8816H107.425V34.1979C107.318 34.4785 107.047 34.6213 106.736 34.6213Z" fill="black"></path><path d="M110.427 32.295C110.029 32.295 109.697 32.4277 109.488 32.6776V32.3256H108.881V35.0499H109.519V33.6725C109.519 33.1266 109.825 32.8511 110.279 32.8511C110.687 32.8511 110.927 33.0858 110.927 33.5704V35.0499H111.564V33.4888C111.564 32.6674 111.08 32.295 110.427 32.295Z" fill="black"></path><path d="M113.832 34.4479C113.736 34.5244 113.608 34.5601 113.475 34.5601C113.23 34.5601 113.098 34.4173 113.098 34.152V32.8562H113.827V32.346H113.098V31.7236H112.46V32.346H112.011V32.8562H112.46V34.1673C112.46 34.7693 112.802 35.0856 113.399 35.0856C113.628 35.0856 113.858 35.0244 114.011 34.9019L113.832 34.4479Z" fill="black"></path><path d="M114.857 31.8767C115.097 31.8767 115.265 31.7032 115.265 31.4788C115.265 31.2696 115.092 31.1115 114.857 31.1115C114.622 31.1115 114.449 31.2798 114.449 31.4941C114.449 31.7083 114.622 31.8767 114.857 31.8767ZM114.536 35.0499H115.173V32.3256H114.536V35.0499Z" fill="black"></path><path d="M118.041 31.2645V32.6623C117.826 32.4124 117.515 32.295 117.163 32.295C116.372 32.295 115.786 32.8409 115.786 33.6878C115.786 34.5346 116.372 35.0856 117.163 35.0856C117.536 35.0856 117.852 34.9581 118.066 34.6979V35.0499H118.678V31.2645H118.041ZM117.24 34.5397C116.781 34.5397 116.429 34.2081 116.429 33.6878C116.429 33.1674 116.781 32.8358 117.24 32.8358C117.699 32.8358 118.051 33.1674 118.051 33.6878C118.051 34.2081 117.699 34.5397 117.24 34.5397Z" fill="black"></path><path d="M120.553 32.295C120.115 32.295 119.691 32.4073 119.4 32.6317L119.65 33.096C119.854 32.9276 120.171 32.8256 120.477 32.8256C120.931 32.8256 121.155 33.045 121.155 33.4174V33.4582H120.451C119.625 33.4582 119.319 33.8153 119.319 34.2693C119.319 34.7438 119.712 35.0856 120.334 35.0856C120.742 35.0856 121.038 34.953 121.191 34.7183V35.0499H121.793V33.4531C121.793 32.6674 121.339 32.295 120.553 32.295ZM120.467 34.6213C120.14 34.6213 119.946 34.4734 119.946 34.2438C119.946 34.0449 120.064 33.8816 120.497 33.8816H121.155V34.1979C121.048 34.4785 120.778 34.6213 120.467 34.6213Z" fill="black"></path><path d="M151.948 26.6388H150.479V30.2099H151.142V29.1794H151.948C152.886 29.1794 153.468 28.6947 153.468 27.9091C153.468 27.1183 152.886 26.6388 151.948 26.6388ZM151.917 28.6182H151.142V27.2H151.917C152.499 27.2 152.8 27.4602 152.8 27.9091C152.8 28.358 152.499 28.6182 151.917 28.6182Z" fill="black"></path><path d="M154.651 27.8836V27.4857H154.044V30.2099H154.682V28.8886C154.682 28.3325 154.988 28.0468 155.473 28.0468C155.519 28.0468 155.564 28.0519 155.621 28.0621V27.4551C155.167 27.4551 154.835 27.5979 154.651 27.8836Z" fill="black"></path><path d="M156.483 27.0367C156.723 27.0367 156.891 26.8633 156.891 26.6388C156.891 26.4296 156.718 26.2715 156.483 26.2715C156.248 26.2715 156.075 26.4398 156.075 26.6541C156.075 26.8684 156.248 27.0367 156.483 27.0367ZM156.162 30.2099H156.799V27.4857H156.162V30.2099Z" fill="black"></path><path d="M159.575 27.4857L158.702 29.5059L157.856 27.4857H157.192L158.361 30.2099H159.019L160.187 27.4857H159.575Z" fill="black"></path><path d="M161.542 27.4551C161.103 27.4551 160.679 27.5673 160.389 27.7918L160.639 28.256C160.843 28.0877 161.159 27.9856 161.465 27.9856C161.919 27.9856 162.144 28.205 162.144 28.5774V28.6182H161.44C160.613 28.6182 160.307 28.9753 160.307 29.4294C160.307 29.9038 160.7 30.2456 161.322 30.2456C161.73 30.2456 162.026 30.113 162.179 29.8783V30.2099H162.781V28.6131C162.781 27.8275 162.327 27.4551 161.542 27.4551ZM161.455 29.7814C161.128 29.7814 160.935 29.6334 160.935 29.4039C160.935 29.2049 161.052 29.0416 161.486 29.0416H162.144V29.3579C162.036 29.6385 161.766 29.7814 161.455 29.7814Z" fill="black"></path><path d="M164.875 30.2456C165.405 30.2456 165.829 30.0161 166.038 29.6079L165.548 29.3222C165.385 29.5824 165.14 29.6998 164.869 29.6998C164.4 29.6998 164.043 29.3784 164.043 28.8478C164.043 28.3223 164.4 27.9958 164.869 27.9958C165.14 27.9958 165.385 28.1132 165.548 28.3733L166.038 28.0877C165.829 27.6744 165.405 27.4551 164.875 27.4551C164.012 27.4551 163.4 28.0315 163.4 28.8478C163.4 29.664 164.012 30.2456 164.875 30.2456Z" fill="black"></path><path d="M166.91 27.0367C167.15 27.0367 167.318 26.8633 167.318 26.6388C167.318 26.4296 167.145 26.2715 166.91 26.2715C166.676 26.2715 166.502 26.4398 166.502 26.6541C166.502 26.8684 166.676 27.0367 166.91 27.0367ZM166.589 30.2099H167.227V27.4857H166.589V30.2099Z" fill="black"></path><path d="M170.094 26.4245V27.8224C169.88 27.5724 169.569 27.4551 169.217 27.4551C168.426 27.4551 167.839 28.0009 167.839 28.8478C167.839 29.6947 168.426 30.2456 169.217 30.2456C169.589 30.2456 169.905 30.1181 170.12 29.8579V30.2099H170.732V26.4245H170.094ZM169.293 29.6998C168.834 29.6998 168.482 29.3681 168.482 28.8478C168.482 28.3274 168.834 27.9958 169.293 27.9958C169.752 27.9958 170.104 28.3274 170.104 28.8478C170.104 29.3681 169.752 29.6998 169.293 29.6998Z" fill="black"></path><path d="M172.607 27.4551C172.168 27.4551 171.745 27.5673 171.454 27.7918L171.704 28.256C171.908 28.0877 172.224 27.9856 172.53 27.9856C172.984 27.9856 173.209 28.205 173.209 28.5774V28.6182H172.505C171.678 28.6182 171.372 28.9753 171.372 29.4294C171.372 29.9038 171.765 30.2456 172.387 30.2456C172.795 30.2456 173.091 30.113 173.244 29.8783V30.2099H173.846V28.6131C173.846 27.8275 173.392 27.4551 172.607 27.4551ZM172.52 29.7814C172.193 29.7814 172 29.6334 172 29.4039C172 29.2049 172.117 29.0416 172.551 29.0416H173.209V29.3579C173.102 29.6385 172.831 29.7814 172.52 29.7814Z" fill="black"></path><path d="M176.72 26.4245V27.8224C176.506 27.5724 176.195 27.4551 175.843 27.4551C175.052 27.4551 174.465 28.0009 174.465 28.8478C174.465 29.6947 175.052 30.2456 175.843 30.2456C176.215 30.2456 176.531 30.1181 176.746 29.8579V30.2099H177.358V26.4245H176.72ZM175.919 29.6998C175.46 29.6998 175.108 29.3681 175.108 28.8478C175.108 28.3274 175.46 27.9958 175.919 27.9958C176.378 27.9958 176.73 28.3274 176.73 28.8478C176.73 29.3681 176.378 29.6998 175.919 29.6998Z" fill="black"></path><path d="M180.753 28.8631C180.753 28.0111 180.171 27.4551 179.376 27.4551C178.564 27.4551 177.968 28.0366 177.968 28.8478C177.968 29.6589 178.559 30.2456 179.473 30.2456C179.942 30.2456 180.325 30.0926 180.569 29.8018L180.228 29.409C180.034 29.6079 179.794 29.7049 179.488 29.7049C179.013 29.7049 178.682 29.4498 178.605 29.0519H180.743C180.748 28.9906 180.753 28.9141 180.753 28.8631ZM179.376 27.9652C179.794 27.9652 180.095 28.2356 180.146 28.6284H178.6C178.661 28.2305 178.962 27.9652 179.376 27.9652Z" fill="black"></path><path d="M151.948 31.4788H150.479V35.0499H151.142V34.0194H151.948C152.886 34.0194 153.468 33.5347 153.468 32.7491C153.468 31.9583 152.886 31.4788 151.948 31.4788ZM151.917 33.4582H151.142V32.0399H151.917C152.499 32.0399 152.8 32.3001 152.8 32.7491C152.8 33.198 152.499 33.4582 151.917 33.4582Z" fill="black"></path><path d="M154.651 32.7236V32.3256H154.044V35.0499H154.682V33.7286C154.682 33.1725 154.988 32.8868 155.473 32.8868C155.519 32.8868 155.564 32.8919 155.621 32.9021V32.295C155.167 32.295 154.835 32.4379 154.651 32.7236Z" fill="black"></path><path d="M157.361 35.0856C158.208 35.0856 158.815 34.504 158.815 33.6878C158.815 32.8715 158.208 32.295 157.361 32.295C156.524 32.295 155.912 32.8715 155.912 33.6878C155.912 34.504 156.524 35.0856 157.361 35.0856ZM157.361 34.5397C156.902 34.5397 156.555 34.2081 156.555 33.6878C156.555 33.1674 156.902 32.8358 157.361 32.8358C157.825 32.8358 158.172 33.1674 158.172 33.6878C158.172 34.2081 157.825 34.5397 157.361 34.5397Z" fill="black"></path><path d="M160.884 34.4479C160.787 34.5244 160.659 34.5601 160.527 34.5601C160.282 34.5601 160.149 34.4173 160.149 34.152V32.8562H160.879V32.346H160.149V31.7236H159.512V32.346H159.063V32.8562H159.512V34.1673C159.512 34.7693 159.853 35.0856 160.45 35.0856C160.68 35.0856 160.909 35.0244 161.062 34.9019L160.884 34.4479Z" fill="black"></path><path d="M164.058 33.7031C164.058 32.8511 163.477 32.295 162.681 32.295C161.87 32.295 161.273 32.8766 161.273 33.6878C161.273 34.4989 161.865 35.0856 162.778 35.0856C163.247 35.0856 163.63 34.9325 163.875 34.6418L163.533 34.2489C163.339 34.4479 163.099 34.5448 162.793 34.5448C162.319 34.5448 161.987 34.2897 161.911 33.8918H164.048C164.053 33.8306 164.058 33.7541 164.058 33.7031ZM162.681 32.8052C163.099 32.8052 163.4 33.0756 163.451 33.4684H161.905C161.967 33.0705 162.268 32.8052 162.681 32.8052Z" fill="black"></path><path d="M166.768 32.3256V32.6878C166.543 32.4175 166.206 32.295 165.824 32.295C165.043 32.295 164.446 32.8154 164.446 33.6061C164.446 34.3969 165.043 34.9274 165.824 34.9274C166.191 34.9274 166.513 34.8101 166.737 34.5652V34.7081C166.737 35.259 166.472 35.5345 165.87 35.5345C165.492 35.5345 165.104 35.407 164.865 35.208L164.579 35.6876C164.89 35.9427 165.395 36.0753 165.905 36.0753C166.859 36.0753 167.375 35.6264 167.375 34.6367V32.3256H166.768ZM165.921 34.3867C165.436 34.3867 165.089 34.0704 165.089 33.6061C165.089 33.147 165.436 32.8358 165.921 32.8358C166.4 32.8358 166.747 33.147 166.747 33.6061C166.747 34.0704 166.4 34.3867 165.921 34.3867Z" fill="black"></path><path d="M168.534 31.8767C168.774 31.8767 168.943 31.7032 168.943 31.4788C168.943 31.2696 168.769 31.1115 168.534 31.1115C168.3 31.1115 168.126 31.2798 168.126 31.4941C168.126 31.7083 168.3 31.8767 168.534 31.8767ZM168.213 35.0499H168.851V32.3256H168.213V35.0499Z" fill="black"></path><path d="M171.718 31.2645V32.6623C171.504 32.4124 171.193 32.295 170.841 32.295C170.05 32.295 169.463 32.8409 169.463 33.6878C169.463 34.5346 170.05 35.0856 170.841 35.0856C171.213 35.0856 171.529 34.9581 171.744 34.6979V35.0499H172.356V31.2645H171.718ZM170.917 34.5397C170.458 34.5397 170.106 34.2081 170.106 33.6878C170.106 33.1674 170.458 32.8358 170.917 32.8358C171.376 32.8358 171.728 33.1674 171.728 33.6878C171.728 34.2081 171.376 34.5397 170.917 34.5397Z" fill="black"></path><path d="M174.231 32.295C173.792 32.295 173.369 32.4073 173.078 32.6317L173.328 33.096C173.532 32.9276 173.848 32.8256 174.154 32.8256C174.608 32.8256 174.833 33.045 174.833 33.4174V33.4582H174.129C173.302 33.4582 172.996 33.8153 172.996 34.2693C172.996 34.7438 173.389 35.0856 174.011 35.0856C174.42 35.0856 174.715 34.953 174.869 34.7183V35.0499H175.471V33.4531C175.471 32.6674 175.016 32.295 174.231 32.295ZM174.144 34.6213C173.818 34.6213 173.624 34.4734 173.624 34.2438C173.624 34.0449 173.741 33.8816 174.175 33.8816H174.833V34.1979C174.726 34.4785 174.455 34.6213 174.144 34.6213Z" fill="black"></path><path d="M34.4738 24.2947L29 26.0382V31.2688C29 34.1579 31.4504 36.4994 34.4738 36.4994C37.4972 36.4994 39.9476 34.1579 39.9476 31.2688V26.0382L34.4738 24.2947ZM38.9212 31.2688C38.9212 33.6158 36.9298 35.5187 34.4738 35.5187C32.0177 35.5187 30.0263 33.6158 30.0263 31.2688V26.7738L34.4738 25.2754L38.9212 26.7738V31.2688Z" fill="black"></path><path d="M32.5692 29.8944C32.5216 29.8488 32.4651 29.8125 32.4028 29.7878C32.3406 29.7631 32.2738 29.7504 32.2064 29.7504C32.139 29.7504 32.0722 29.7631 32.01 29.7878C31.9477 29.8125 31.8912 29.8488 31.8436 29.8944C31.7958 29.9399 31.7579 29.9939 31.7321 30.0534C31.7062 30.1129 31.6929 30.1767 31.6929 30.2411C31.6929 30.3055 31.7062 30.3693 31.7321 30.4288C31.7579 30.4883 31.7958 30.5423 31.8436 30.5877L33.6882 32.3503L33.7181 32.379C33.7631 32.422 33.8165 32.4562 33.8754 32.4795C33.9342 32.5028 33.9972 32.5148 34.0609 32.5148C34.1246 32.5148 34.1877 32.5028 34.2465 32.4795C34.3053 32.4562 34.3588 32.422 34.4038 32.379L37.5897 29.3346C37.6347 29.2916 37.6705 29.2405 37.6949 29.1843C37.7193 29.1281 37.7319 29.0678 37.7319 29.007C37.7319 28.9461 37.7193 28.8859 37.6949 28.8297C37.6705 28.7734 37.6347 28.7224 37.5897 28.6794L37.5498 28.6412C37.5048 28.5982 37.4513 28.564 37.3925 28.5407C37.3337 28.5174 37.2706 28.5054 37.2069 28.5054C37.1432 28.5054 37.0802 28.5174 37.0214 28.5407C36.9625 28.564 36.9091 28.5982 36.8641 28.6412L34.0602 31.3192L32.5692 29.8944Z" fill="black"></path><path fill-rule="evenodd" clip-rule="evenodd" d="M81.0701 29.6612C80.3497 29.5623 79.6908 29.2186 79.2141 28.693C78.7375 28.1675 78.4751 27.4953 78.4751 26.7999V26.4145C78.4751 25.6698 79.1075 25.0655 79.8868 25.0655H80.9806C81.1645 24.6146 81.6227 24.2947 82.1599 24.2947H87.6969C87.9518 24.2948 88.2007 24.3685 88.4111 24.506C88.6216 24.6435 88.7836 24.8385 88.8762 25.0655H89.97C90.7493 25.0655 91.3817 25.6698 91.3817 26.4145V26.7999C91.3817 27.4953 91.1193 28.1675 90.6427 28.693C90.166 29.2186 89.5071 29.5623 88.7867 29.6612C88.6163 30.1915 88.3286 30.6805 87.9429 31.0951C87.5572 31.5097 87.0826 31.8401 86.5514 32.0638L86.6676 33.1785C86.6716 33.217 86.6918 33.271 86.7595 33.3357C86.8289 33.4028 86.9346 33.4667 87.0604 33.5107C87.2887 33.5901 87.5589 33.7219 87.7783 33.9485C88.0082 34.1875 88.155 34.5058 88.155 34.8935V35.4717H89.1634C89.3238 35.4717 89.4777 35.5326 89.5912 35.641C89.7046 35.7494 89.7684 35.8965 89.7684 36.0498C89.7684 36.2031 89.7046 36.3502 89.5912 36.4586C89.4777 36.567 89.3238 36.6279 89.1634 36.6279H80.6934C80.533 36.6279 80.3791 36.567 80.2656 36.4586C80.1522 36.3502 80.0884 36.2031 80.0884 36.0498C80.0884 35.8965 80.1522 35.7494 80.2656 35.641C80.3791 35.5326 80.533 35.4717 80.6934 35.4717H81.7017V34.8935C81.7017 34.5058 81.8486 34.1875 82.0793 33.9485C82.2971 33.7219 82.5681 33.5901 82.7964 33.5107C82.9086 33.4736 83.0112 33.4139 83.0973 33.3357C83.165 33.2702 83.1852 33.2178 83.1892 33.1785L83.3054 32.0638C82.7743 31.84 82.2999 31.5096 81.9144 31.095C81.5288 30.6804 81.2412 30.1914 81.0709 29.6612H81.0701ZM80.8951 26.2217H79.8868C79.8333 26.2217 79.782 26.242 79.7442 26.2782C79.7063 26.3143 79.6851 26.3633 79.6851 26.4145V26.7999C79.6851 27.5553 80.1901 28.1974 80.8951 28.4356V26.2217ZM84.4904 32.3652L84.3936 33.2933C84.3186 34.0063 83.7015 34.4264 83.2102 34.5968C83.1197 34.6236 83.0369 34.67 82.9682 34.7324C82.9384 34.7633 82.9117 34.8041 82.9117 34.8943V35.4724H86.945V34.8943C86.945 34.8041 86.9184 34.7633 86.8886 34.7324C86.8199 34.67 86.7371 34.6236 86.6466 34.5968C86.1553 34.4264 85.5382 34.0063 85.464 33.2941L85.3672 32.366C85.0758 32.3961 84.7818 32.3961 84.4904 32.366V32.3652ZM88.9617 28.4363V26.2217H89.97C90.0235 26.2217 90.0748 26.242 90.1126 26.2782C90.1504 26.3143 90.1717 26.3633 90.1717 26.4145V26.7999C90.1718 27.1586 90.0555 27.5086 89.8388 27.8015C89.6221 28.0945 89.3157 28.316 88.9617 28.4356V28.4363ZM82.1051 25.5033C82.1051 25.4748 82.1293 25.4509 82.1599 25.4509H87.6969C87.7267 25.4509 87.7517 25.474 87.7517 25.5033V28.5342C87.7517 29.2498 87.4543 29.936 86.9248 30.4419C86.3953 30.9479 85.6772 31.2321 84.9284 31.2321C84.1796 31.2321 83.4615 30.9479 82.932 30.4419C82.4025 29.936 82.1051 29.2498 82.1051 28.5342V25.5033Z" fill="black"></path><path d="M84.9287 26.1445L85.3633 27.4228H86.7699L85.632 28.2129L86.0666 29.4912L84.9287 28.7011L83.7907 29.4912L84.2254 28.2129L83.0874 27.4228H84.494L84.9287 26.1445Z" fill="black"></path><path d="M192.978 13.3318V9.00544C192.978 8.81618 193.015 8.62876 193.087 8.4539C193.16 8.27905 193.266 8.12017 193.4 7.98636C193.534 7.85255 193.693 7.74641 193.867 7.67402C194.042 7.60163 194.23 7.5644 194.419 7.56445H195.695C196.076 7.56524 196.441 7.71723 196.711 7.98706C196.98 8.2569 197.131 8.62254 197.131 9.00374V9.92457C197.131 10.3069 196.979 10.6735 196.709 10.9438C196.439 11.2141 196.072 11.366 195.69 11.366H193.885" stroke="black" stroke-width="0.386569" stroke-linecap="round" stroke-linejoin="round"></path><path d="M197.489 7.56372H198.042C198.199 7.56372 198.35 7.62605 198.461 7.737C198.571 7.84795 198.634 7.99844 198.634 8.15534V11.3878" stroke="black" stroke-width="0.386569" stroke-linecap="round" stroke-linejoin="round"></path><path d="M198.515 7.0631L198.264 6.81173C198.249 6.79691 198.237 6.77931 198.229 6.75994C198.221 6.74056 198.217 6.71979 198.217 6.69881C198.217 6.67783 198.221 6.65705 198.229 6.63768C198.237 6.6183 198.249 6.6007 198.264 6.58588L198.515 6.33494C198.529 6.32009 198.547 6.30831 198.566 6.30026C198.586 6.29222 198.607 6.28809 198.628 6.28809C198.648 6.28809 198.669 6.29222 198.689 6.30026C198.708 6.30831 198.726 6.32009 198.74 6.33494L198.992 6.58588C199.007 6.6007 199.018 6.6183 199.026 6.63768C199.035 6.65705 199.039 6.67783 199.039 6.69881C199.039 6.71979 199.035 6.74056 199.026 6.75994C199.018 6.77931 199.007 6.79691 198.992 6.81173L198.74 7.0631C198.726 7.07795 198.708 7.08973 198.689 7.09777C198.669 7.10581 198.648 7.10995 198.628 7.10995C198.607 7.10995 198.586 7.10581 198.566 7.09777C198.547 7.08973 198.529 7.07795 198.515 7.0631Z" fill="black"></path><path d="M199.698 7.56104H200.248C200.53 7.56108 200.802 7.67337 201.001 7.87322L202.287 9.15812C202.326 9.19779 202.373 9.22927 202.425 9.25075C202.477 9.27223 202.532 9.28329 202.588 9.28329C202.644 9.28329 202.7 9.27223 202.751 9.25075C202.803 9.22927 202.85 9.19779 202.889 9.15812L204.171 7.8779C204.27 7.77891 204.388 7.70038 204.517 7.64682C204.646 7.59325 204.785 7.56569 204.925 7.56571H205.372" stroke="black" stroke-width="0.386569" stroke-linecap="round" stroke-linejoin="round"></path><path d="M199.698 11.3588H200.248C200.53 11.3587 200.802 11.2465 201.001 11.0466L202.287 9.76213C202.326 9.72246 202.373 9.69098 202.425 9.6695C202.477 9.64802 202.532 9.63696 202.588 9.63696C202.644 9.63696 202.7 9.64802 202.751 9.6695C202.803 9.69098 202.85 9.72246 202.889 9.76213L204.171 11.0419C204.27 11.1409 204.388 11.2194 204.517 11.273C204.646 11.3266 204.785 11.3541 204.925 11.3541H205.372" stroke="black" stroke-width="0.386569" stroke-linecap="round" stroke-linejoin="round"></path><path d="M189.702 12.1797C189.566 12.1801 189.432 12.1536 189.306 12.1017C189.181 12.0498 189.067 11.9735 188.971 11.8773L187.917 10.8255C187.88 10.7897 187.83 10.7698 187.779 10.7698C187.727 10.7698 187.677 10.7897 187.64 10.8255L186.582 11.8832C186.486 11.9795 186.372 12.0557 186.247 12.1076C186.122 12.1596 185.987 12.1861 185.852 12.1857H185.644L186.979 13.5212C187.179 13.7213 187.451 13.8338 187.734 13.8338C188.017 13.8338 188.289 13.7213 188.489 13.5212L189.828 12.1818L189.702 12.1797Z" fill="black"></path><path d="M185.852 8.45054C185.987 8.45022 186.122 8.47678 186.247 8.52868C186.372 8.58059 186.486 8.65681 186.582 8.75294L187.64 9.81114C187.677 9.84779 187.727 9.86837 187.779 9.86837C187.831 9.86837 187.88 9.84779 187.917 9.81114L188.971 8.75677C189.067 8.66063 189.181 8.58442 189.306 8.53251C189.432 8.48061 189.566 8.45405 189.702 8.45437H189.829L188.49 7.11545C188.391 7.01624 188.274 6.93753 188.144 6.88383C188.014 6.83013 187.876 6.80249 187.735 6.80249C187.595 6.80249 187.456 6.83013 187.327 6.88383C187.197 6.93753 187.079 7.01624 186.98 7.11545L185.645 8.45054H185.852Z" fill="black"></path><path d="M190.936 9.56175L190.128 8.75364C190.11 8.76095 190.091 8.76484 190.071 8.76512H189.703C189.511 8.76592 189.328 8.84235 189.193 8.97778L188.137 10.03C188.09 10.077 188.034 10.1143 187.972 10.1397C187.911 10.1651 187.845 10.1781 187.779 10.178C187.645 10.1783 187.516 10.1252 187.421 10.0305L186.362 8.97225C186.227 8.83682 186.044 8.76039 185.852 8.75959H185.4C185.381 8.75925 185.363 8.7555 185.346 8.74854L184.533 9.5609C184.434 9.66004 184.355 9.77776 184.302 9.90734C184.248 10.0369 184.22 10.1758 184.22 10.3161C184.22 10.4563 184.248 10.5952 184.302 10.7248C184.355 10.8544 184.434 10.9721 184.533 11.0712L185.346 11.8836C185.363 11.8766 185.381 11.8729 185.4 11.8725H185.852C186.044 11.8716 186.227 11.7952 186.362 11.6599L187.421 10.6017C187.517 10.5096 187.645 10.4583 187.779 10.4583C187.912 10.4583 188.04 10.5096 188.137 10.6017L189.191 11.656C189.326 11.7913 189.51 11.8678 189.701 11.8687H190.069C190.089 11.8689 190.108 11.873 190.127 11.8806L190.935 11.0725C191.135 10.8722 191.247 10.6005 191.247 10.3173C191.247 10.0341 191.135 9.76251 190.935 9.56218" fill="black"></path><path d="M194.076 12.964C194.009 12.967 193.943 12.9771 193.878 12.9942V13.2579C193.928 13.2753 193.98 13.2841 194.033 13.2838C194.165 13.2838 194.227 13.2392 194.227 13.1226C194.227 13.0133 194.176 12.964 194.076 12.964ZM193.833 13.4535V12.9325H193.87L193.874 12.955C193.941 12.937 194.01 12.9259 194.08 12.9219C194.128 12.9185 194.176 12.9324 194.215 12.961C194.237 12.9818 194.253 13.0071 194.264 13.0351C194.274 13.063 194.278 13.0929 194.275 13.1226C194.278 13.1557 194.271 13.1889 194.256 13.2185C194.241 13.2481 194.218 13.2731 194.19 13.2906C194.142 13.3141 194.09 13.3258 194.036 13.3247C193.983 13.3243 193.929 13.3162 193.878 13.3004V13.4535H193.833Z" fill="black"></path><path d="M194.607 12.9628C194.474 12.9628 194.416 13.0053 194.416 13.1206C194.416 13.2358 194.474 13.2839 194.607 13.2839C194.739 13.2839 194.797 13.2414 194.797 13.1265C194.797 13.0117 194.739 12.9628 194.607 12.9628ZM194.777 13.2839C194.726 13.3154 194.666 13.3303 194.607 13.3264C194.547 13.33 194.488 13.3152 194.437 13.2839C194.413 13.265 194.394 13.2404 194.382 13.2124C194.37 13.1844 194.366 13.1538 194.369 13.1236C194.366 13.0932 194.371 13.0627 194.382 13.0347C194.394 13.0066 194.413 12.9819 194.437 12.9628C194.488 12.9313 194.547 12.9165 194.607 12.9203C194.666 12.9165 194.726 12.9314 194.777 12.9628C194.8 12.9818 194.819 13.0063 194.831 13.0342C194.843 13.0621 194.848 13.0925 194.845 13.1227C194.848 13.1531 194.843 13.1838 194.831 13.2119C194.819 13.24 194.801 13.2648 194.777 13.2839Z" fill="black"></path><path d="M195.403 13.3139L195.255 12.9975H195.252L195.107 13.3139H195.069L194.912 12.9312H194.961L195.092 13.2514H195.095L195.237 12.9312H195.28L195.425 13.2514H195.428L195.556 12.9312H195.604L195.447 13.3139H195.403Z" fill="black"></path><path d="M195.884 12.9619C195.762 12.9619 195.721 13.0164 195.714 13.0951H196.057C196.054 13.0079 196.009 12.9619 195.887 12.9619H195.884ZM195.887 13.3247C195.831 13.3307 195.774 13.3156 195.728 13.2822C195.706 13.2621 195.689 13.2372 195.678 13.2095C195.667 13.1818 195.662 13.152 195.665 13.1223C195.663 13.0914 195.668 13.0606 195.681 13.0322C195.693 13.0039 195.712 12.9788 195.736 12.959C195.78 12.9312 195.832 12.9178 195.884 12.9207C195.938 12.9174 195.991 12.9303 196.037 12.9577C196.092 12.9947 196.103 13.0598 196.103 13.1338H195.711C195.711 13.212 195.739 13.2818 195.887 13.2818C195.953 13.2802 196.019 13.2728 196.084 13.2597V13.2996C196.018 13.3134 195.951 13.3214 195.883 13.3235" fill="black"></path><path d="M196.23 13.3141V12.9313H196.267L196.271 12.9538C196.332 12.9337 196.396 12.9226 196.46 12.9207H196.466V12.9632H196.455C196.394 12.9645 196.333 12.9747 196.275 12.9934V13.3132L196.23 13.3141Z" fill="black"></path><path d="M196.725 12.9619C196.603 12.9619 196.561 13.0163 196.555 13.095H196.898C196.894 13.0078 196.85 12.9619 196.728 12.9619H196.725ZM196.728 13.3247C196.672 13.3305 196.615 13.3154 196.57 13.2821C196.548 13.2618 196.532 13.2369 196.522 13.2095C196.512 13.1821 196.508 13.1527 196.51 13.1235C196.508 13.0926 196.514 13.0618 196.526 13.0334C196.539 13.0051 196.557 12.98 196.581 12.9602C196.626 12.9324 196.677 12.919 196.73 12.9219C196.783 12.9186 196.836 12.9315 196.882 12.9589C196.937 12.9959 196.948 13.061 196.948 13.135H196.557C196.557 13.2132 196.584 13.283 196.732 13.283C196.798 13.2814 196.864 13.274 196.929 13.2609V13.3008C196.863 13.3146 196.796 13.3226 196.728 13.3247Z" fill="black"></path><path d="M197.431 12.9882C197.382 12.9709 197.33 12.9622 197.277 12.9626C197.145 12.9626 197.082 13.0073 197.082 13.1234C197.082 13.2395 197.134 13.2821 197.234 13.2821C197.3 13.2789 197.367 13.2691 197.431 13.2527V12.9882ZM197.44 13.314L197.436 13.291C197.369 13.3091 197.3 13.3204 197.23 13.3246C197.181 13.3283 197.133 13.3142 197.095 13.285C197.073 13.2643 197.056 13.2391 197.046 13.2111C197.036 13.1831 197.032 13.1531 197.035 13.1234C197.032 13.0904 197.039 13.0574 197.054 13.0279C197.069 12.9984 197.091 12.9736 197.12 12.9563C197.167 12.9322 197.221 12.9203 197.274 12.9218C197.328 12.9224 197.381 12.9306 197.432 12.946V12.7712H197.476V13.314H197.44Z" fill="black"></path><path d="M198.131 12.9639C198.064 12.9669 197.998 12.977 197.933 12.9941V13.257C197.983 13.275 198.035 13.2841 198.088 13.2838C198.22 13.2838 198.282 13.2391 198.282 13.1226C198.282 13.0132 198.231 12.9639 198.131 12.9639ZM198.245 13.2906C198.198 13.3141 198.145 13.3257 198.092 13.3246C198.034 13.324 197.977 13.3142 197.922 13.2957V13.314H197.891V12.7712H197.934V12.952C198 12.9351 198.067 12.9246 198.136 12.9205C198.184 12.9172 198.232 12.9311 198.271 12.9597C198.292 12.9804 198.309 13.0057 198.319 13.0337C198.329 13.0617 198.333 13.0916 198.33 13.1213C198.333 13.1544 198.326 13.1875 198.311 13.2172C198.296 13.2468 198.274 13.2717 198.245 13.2893" fill="black"></path><path d="M198.387 13.4625V13.42C198.409 13.42 198.429 13.4238 198.443 13.4238C198.469 13.4259 198.495 13.4193 198.517 13.4051C198.538 13.3908 198.555 13.3697 198.563 13.3451L198.577 13.3149L198.378 12.9321H198.429L198.6 13.2613H198.603L198.765 12.9321H198.816L198.603 13.3604C198.563 13.4383 198.521 13.4638 198.443 13.4638C198.425 13.4646 198.406 13.4642 198.387 13.4625Z" fill="black"></path><path d="M199.431 13.0962H199.283V13.2302H199.432C199.534 13.2302 199.572 13.2187 199.572 13.1626C199.572 13.1064 199.519 13.0962 199.431 13.0962ZM199.404 12.8793H199.283V13.0154H199.404C199.505 13.0154 199.545 13.0035 199.545 12.9465C199.545 12.8895 199.495 12.8793 199.404 12.8793ZM199.634 13.2779C199.579 13.3123 199.513 13.314 199.393 13.314H199.167V12.7964H199.388C199.492 12.7964 199.555 12.7964 199.608 12.8296C199.625 12.8401 199.64 12.8552 199.649 12.8734C199.658 12.8916 199.662 12.9121 199.661 12.9325C199.662 12.958 199.655 12.9833 199.64 13.0041C199.625 13.0249 199.604 13.0402 199.579 13.0473V13.0503C199.646 13.0652 199.688 13.0992 199.688 13.1728C199.69 13.1937 199.686 13.2146 199.676 13.2332C199.666 13.2518 199.652 13.2672 199.634 13.2779Z" fill="black"></path><path d="M200.14 13.1536C200.098 13.1498 200.051 13.1476 200.003 13.1476C199.925 13.1476 199.898 13.1634 199.898 13.1991C199.898 13.2348 199.921 13.2501 199.98 13.2501C200.034 13.2482 200.088 13.2407 200.14 13.2276V13.1536ZM200.163 13.3139L200.16 13.291C200.093 13.3101 200.023 13.3214 199.953 13.3246C199.913 13.3272 199.872 13.3174 199.838 13.2965C199.824 13.2858 199.812 13.2718 199.805 13.2557C199.797 13.2396 199.794 13.2219 199.795 13.2042C199.794 13.1825 199.8 13.161 199.811 13.1426C199.823 13.1241 199.839 13.1096 199.859 13.1008C199.905 13.0837 199.954 13.0765 200.003 13.0796C200.043 13.0796 200.096 13.0817 200.141 13.0847V13.0796C200.141 13.02 200.102 13.0005 199.994 13.0005C199.952 13.0005 199.902 13.0026 199.854 13.0073V12.9299C199.907 12.9256 199.968 12.9226 200.018 12.9226C200.079 12.9172 200.141 12.9295 200.195 12.9579C200.238 12.989 200.247 13.0319 200.247 13.0889V13.3148L200.163 13.3139Z" fill="black"></path><path d="M200.746 13.3142V13.1015C200.746 13.0322 200.71 13.0071 200.646 13.0071C200.594 13.0093 200.542 13.0175 200.491 13.0313V13.3125H200.386V12.9297H200.471L200.475 12.9535C200.541 12.9342 200.609 12.9227 200.678 12.919C200.725 12.9154 200.772 12.9293 200.809 12.9582C200.825 12.9737 200.837 12.9925 200.844 13.0131C200.851 13.0338 200.854 13.0558 200.852 13.0777V13.3112L200.746 13.3142Z" fill="black"></path><path d="M201.151 13.3246C201.1 13.3285 201.05 13.3142 201.009 13.2842C200.987 13.2636 200.971 13.2384 200.96 13.2104C200.95 13.1824 200.946 13.1523 200.949 13.1226C200.947 13.091 200.953 13.0595 200.966 13.031C200.98 13.0025 201.001 12.9779 201.027 12.9597C201.078 12.9311 201.136 12.9179 201.194 12.9218C201.237 12.9218 201.281 12.9248 201.329 12.929V13.0107C201.29 13.0073 201.243 13.0039 201.207 13.0039C201.106 13.0039 201.058 13.0358 201.058 13.1234C201.058 13.211 201.094 13.2412 201.177 13.2412C201.231 13.2396 201.284 13.233 201.337 13.2217V13.3003C201.276 13.3144 201.214 13.3225 201.151 13.3246Z" fill="black"></path><path d="M201.653 13.0019C201.552 13.0019 201.507 13.0338 201.507 13.1205C201.507 13.2073 201.55 13.2443 201.653 13.2443C201.756 13.2443 201.797 13.2133 201.797 13.1265C201.797 13.0397 201.755 13.0019 201.653 13.0019ZM201.836 13.2843C201.78 13.3157 201.717 13.3298 201.653 13.3247C201.589 13.3296 201.525 13.3156 201.469 13.2843C201.444 13.266 201.425 13.2416 201.412 13.2134C201.399 13.1852 201.394 13.1543 201.397 13.1235C201.394 13.0927 201.399 13.0616 201.412 13.0332C201.425 13.0049 201.444 12.9803 201.469 12.9619C201.525 12.9308 201.589 12.9168 201.653 12.9219C201.717 12.917 201.78 12.9309 201.836 12.9619C201.861 12.9803 201.88 13.0047 201.893 13.0329C201.905 13.0611 201.91 13.092 201.907 13.1227C201.91 13.1534 201.905 13.1845 201.892 13.2128C201.88 13.2411 201.861 13.2657 201.836 13.2843Z" fill="black"></path><path d="M202.522 13.3247C202.456 13.3289 202.39 13.3097 202.336 13.2706C202.274 13.2196 202.255 13.1401 202.255 13.0546C202.253 13.0121 202.261 12.9697 202.28 12.9313C202.298 12.8929 202.326 12.8597 202.36 12.8347C202.427 12.7977 202.503 12.7808 202.579 12.7858C202.637 12.7858 202.695 12.7896 202.76 12.7947V12.8879C202.705 12.8832 202.637 12.8793 202.584 12.8793C202.436 12.8793 202.374 12.9355 202.374 13.0546C202.374 13.1737 202.432 13.2307 202.541 13.2307C202.618 13.2281 202.696 13.2177 202.771 13.1996V13.2923C202.689 13.3115 202.606 13.3225 202.522 13.3251" fill="black"></path><path d="M203.084 12.9899C202.996 12.9899 202.962 13.0214 202.956 13.0797H203.212C203.209 13.0176 203.173 12.9899 203.084 12.9899ZM203.068 13.3247C203.011 13.3298 202.954 13.3148 202.907 13.2821C202.885 13.2619 202.868 13.237 202.858 13.2094C202.847 13.1818 202.843 13.1521 202.845 13.1226C202.844 13.0921 202.849 13.0616 202.862 13.0336C202.874 13.0057 202.893 12.9811 202.917 12.9619C202.967 12.9316 203.026 12.9177 203.084 12.9219C203.142 12.9183 203.199 12.9316 203.249 12.9602C203.311 13.0027 203.316 13.0699 203.317 13.1486H202.954C202.956 13.2068 202.987 13.2443 203.095 13.2443C203.163 13.2428 203.231 13.2362 203.298 13.2247V13.2996C203.222 13.3139 203.145 13.3223 203.068 13.3247Z" fill="black"></path><path d="M203.791 13.3142V13.1015C203.791 13.0322 203.755 13.0071 203.692 13.0071C203.639 13.0093 203.587 13.0175 203.536 13.0313V13.3125H203.43V12.9297H203.517L203.521 12.9535C203.587 12.9342 203.655 12.9226 203.724 12.919C203.771 12.9154 203.818 12.9293 203.855 12.9582C203.871 12.9737 203.883 12.9925 203.89 13.0131C203.897 13.0338 203.9 13.0558 203.898 13.0777V13.3112L203.791 13.3142Z" fill="black"></path><path d="M204.2 13.3245C204.176 13.3268 204.152 13.323 204.131 13.3134C204.109 13.3039 204.09 13.289 204.076 13.27C204.055 13.2353 204.045 13.1949 204.048 13.1544V13.0114H203.971V12.9323H204.048L204.059 12.8167H204.154V12.9323H204.304V13.0114H204.154V13.1339C204.152 13.1587 204.156 13.1834 204.164 13.2067C204.171 13.219 204.181 13.229 204.193 13.2354C204.206 13.2417 204.22 13.244 204.234 13.242C204.259 13.2415 204.285 13.239 204.31 13.2343V13.3109C204.273 13.3188 204.237 13.3234 204.2 13.3245Z" fill="black"></path><path d="M204.408 13.3141V12.9313H204.493L204.497 12.9551C204.558 12.9345 204.622 12.9229 204.686 12.9207H204.7V13.0117C204.687 13.0117 204.673 13.0117 204.663 13.0117C204.612 13.0119 204.562 13.0184 204.513 13.0312V13.3132L204.408 13.3141Z" fill="black"></path><path d="M205.088 13.1536C205.044 13.1498 204.998 13.1476 204.951 13.1476C204.873 13.1476 204.846 13.1634 204.846 13.1991C204.846 13.2348 204.869 13.2501 204.928 13.2501C204.982 13.2482 205.036 13.2406 205.088 13.2276V13.1536ZM205.111 13.3139L205.107 13.2922C205.039 13.3114 204.97 13.3227 204.9 13.3258C204.859 13.3285 204.819 13.3187 204.784 13.2978C204.77 13.287 204.759 13.273 204.751 13.2569C204.744 13.2408 204.74 13.2232 204.741 13.2055C204.74 13.1832 204.746 13.1611 204.758 13.1423C204.771 13.1236 204.788 13.1091 204.809 13.1008C204.855 13.0841 204.903 13.0771 204.951 13.0804C204.991 13.0804 205.045 13.0826 205.09 13.0855V13.0796C205.09 13.02 205.051 13.0005 204.943 13.0005C204.901 13.0005 204.851 13.0026 204.803 13.0073V12.9299C204.857 12.9256 204.917 12.9226 204.967 12.9226C205.028 12.9172 205.09 12.9295 205.144 12.9579C205.187 12.989 205.196 13.0319 205.196 13.0889V13.3148L205.111 13.3139Z" fill="black"></path><path d="M205.332 12.7712H205.439V13.314H205.332V12.7712Z" fill="black"></path><path fill-rule="evenodd" clip-rule="evenodd" d="M163.8 13.2118V10.679H165.107C165.642 10.679 166.095 10.4995 166.463 10.1455L166.552 10.0558C167.225 9.32288 167.181 8.18112 166.463 7.50305C166.104 7.14407 165.613 6.94962 165.107 6.95959H163.008V13.2118H163.8ZM163.8 9.91105V7.72725H165.127C165.412 7.72725 165.682 7.83694 165.884 8.03638C166.311 8.45519 166.321 9.1532 165.908 9.58697C165.707 9.80136 165.422 9.92102 165.127 9.91105H163.8ZM170.242 9.26792C169.903 8.95382 169.441 8.79427 168.857 8.79427C168.105 8.79427 167.54 9.07348 167.166 9.62691L167.864 10.0706C168.119 9.69172 168.468 9.50226 168.911 9.50226C169.191 9.50226 169.461 9.60696 169.672 9.79642C169.879 9.97591 169.997 10.2352 169.997 10.5094V10.6939C169.692 10.5244 169.309 10.4346 168.837 10.4346C168.287 10.4346 167.844 10.5642 167.515 10.8285C167.186 11.0927 167.019 11.4418 167.019 11.8855C167.009 12.2893 167.181 12.6733 167.485 12.9325C167.795 13.2117 168.188 13.3513 168.65 13.3513C169.196 13.3513 169.628 13.107 169.957 12.6184H169.992V13.2117H170.749V10.5742C170.749 10.0208 170.582 9.58203 170.242 9.26792ZM168.095 12.424C167.933 12.3044 167.835 12.1099 167.835 11.9005C167.835 11.6662 167.943 11.4717 168.154 11.3172C168.37 11.1626 168.641 11.0828 168.96 11.0828C169.403 11.0779 169.747 11.1776 169.992 11.377C169.992 11.716 169.86 12.0102 169.599 12.2595C169.363 12.4988 169.044 12.6334 168.71 12.6334C168.488 12.6384 168.272 12.5636 168.095 12.424ZM172.449 15.0913L175.093 8.93384H174.233L173.009 12.0051H172.995L171.741 8.93384H170.881L172.616 12.9375L171.633 15.0913H172.449Z" fill="black"></path><path d="M161.068 10.1305C161.068 9.88621 161.048 9.64191 161.009 9.40259H157.672V10.7837H159.584C159.505 11.2274 159.249 11.6263 158.876 11.8756V12.773H160.016C160.684 12.1498 161.068 11.2274 161.068 10.1305Z" fill="black"></path><path d="M157.672 13.6405C158.626 13.6405 159.432 13.3214 160.016 12.773L158.876 11.8755C158.557 12.0949 158.149 12.2196 157.672 12.2196C156.748 12.2196 155.967 11.5864 155.687 10.7388H154.512V11.6661C155.112 12.8777 156.335 13.6405 157.672 13.6405Z" fill="black"></path><path d="M155.687 10.7389C155.539 10.2952 155.539 9.81153 155.687 9.36281V8.44043H154.512C154.006 9.45255 154.006 10.6492 154.512 11.6613L155.687 10.7389Z" fill="black"></path><path d="M157.672 7.88187C158.178 7.8719 158.665 8.06635 159.029 8.42034L160.041 7.39326C159.397 6.78499 158.552 6.45094 157.672 6.46091C156.335 6.46091 155.112 7.22873 154.512 8.44029L155.687 9.36765C155.967 8.51507 156.748 7.88187 157.672 7.88187Z" fill="black"></path><path fill-rule="evenodd" clip-rule="evenodd" d="M129.031 12.7781H127.727C127.638 12.7781 127.562 12.8429 127.548 12.931L127.02 16.2755C127.01 16.3415 127.061 16.401 127.128 16.401H127.751C127.84 16.401 127.916 16.3361 127.93 16.2479L128.072 15.3458C128.086 15.2575 128.162 15.1927 128.251 15.1927H128.664C129.523 15.1927 130.019 14.7769 130.148 13.9531C130.207 13.5927 130.151 13.3095 129.982 13.1111C129.797 12.8933 129.468 12.7781 129.031 12.7781ZM129.182 13.9996C129.11 14.4676 128.753 14.4676 128.407 14.4676H128.21L128.348 13.5935C128.357 13.5408 128.402 13.5018 128.456 13.5018H128.546C128.781 13.5018 129.004 13.5018 129.118 13.6361C129.187 13.7162 129.208 13.8352 129.182 13.9996ZM132.93 13.9846H132.305C132.252 13.9846 132.206 14.0235 132.198 14.0764L132.17 14.251L132.127 14.1878C131.991 13.9915 131.69 13.9259 131.389 13.9259C130.699 13.9259 130.109 14.4486 129.995 15.1819C129.935 15.5477 130.02 15.8974 130.227 16.1414C130.418 16.3656 130.69 16.4591 131.014 16.4591C131.57 16.4591 131.878 16.1015 131.878 16.1015L131.851 16.2751C131.84 16.3414 131.891 16.4009 131.958 16.4009H132.52C132.61 16.4009 132.685 16.336 132.699 16.2478L133.037 14.1101C133.048 14.0443 132.997 13.9846 132.93 13.9846ZM132.059 15.2002C131.999 15.557 131.716 15.7965 131.355 15.7965C131.173 15.7965 131.028 15.7384 130.935 15.6282C130.843 15.5187 130.808 15.3629 130.837 15.1894C130.894 14.8355 131.182 14.5883 131.537 14.5883C131.715 14.5883 131.859 14.6471 131.954 14.7583C132.049 14.8707 132.087 15.0274 132.059 15.2002ZM135.629 13.9845H136.256C136.344 13.9845 136.396 14.0831 136.346 14.1552L134.258 17.1684C134.224 17.2172 134.169 17.2462 134.109 17.2462H133.482C133.394 17.2462 133.342 17.1468 133.394 17.0746L134.044 16.1571L133.352 14.1283C133.328 14.0578 133.38 13.9845 133.455 13.9845H134.072C134.152 13.9845 134.223 14.0371 134.246 14.1138L134.613 15.3391L135.479 14.064C135.513 14.0143 135.569 13.9845 135.629 13.9845Z" fill="black"></path><path fill-rule="evenodd" clip-rule="evenodd" d="M142.434 16.2757L142.969 12.87C142.977 12.8172 143.023 12.7783 143.076 12.7781H143.679C143.745 12.7781 143.797 12.8377 143.786 12.9037L143.258 16.2481C143.244 16.3363 143.169 16.4012 143.079 16.4012H142.541C142.474 16.4012 142.423 16.3417 142.434 16.2757ZM138.335 12.7783H137.03C136.941 12.7783 136.865 12.8431 136.851 12.9312L136.324 16.2757C136.313 16.3417 136.364 16.4012 136.431 16.4012H137.1C137.162 16.4012 137.216 16.3558 137.225 16.294L137.375 15.346C137.389 15.2577 137.465 15.1929 137.554 15.1929H137.967C138.826 15.1929 139.322 14.7771 139.451 13.9533C139.51 13.5928 139.454 13.3096 139.285 13.1112C139.1 12.8935 138.771 12.7783 138.335 12.7783ZM138.485 13.9998C138.414 14.4678 138.056 14.4678 137.71 14.4678H137.514L137.652 13.5937C137.66 13.5409 137.706 13.502 137.759 13.502H137.849C138.085 13.502 138.307 13.502 138.422 13.6363C138.49 13.7164 138.511 13.8354 138.485 13.9998ZM142.233 13.9848H141.609C141.555 13.9848 141.51 14.0237 141.502 14.0766L141.474 14.2512L141.43 14.1879C141.295 13.9917 140.994 13.9261 140.693 13.9261C140.002 13.9261 139.413 14.4488 139.298 15.1821C139.239 15.5478 139.323 15.8976 139.531 16.1415C139.721 16.3658 139.993 16.4592 140.317 16.4592C140.873 16.4592 141.182 16.1016 141.182 16.1016L141.154 16.2752C141.144 16.3416 141.195 16.4011 141.262 16.4011H141.824C141.913 16.4011 141.989 16.3362 142.003 16.248L142.341 14.1103C142.351 14.0445 142.3 13.9848 142.233 13.9848ZM141.362 15.2004C141.302 15.5572 141.019 15.7967 140.658 15.7967C140.477 15.7967 140.331 15.7386 140.238 15.6283C140.146 15.5189 140.111 15.363 140.14 15.1895C140.197 14.8357 140.484 14.5884 140.84 14.5884C141.018 14.5884 141.162 14.6473 141.257 14.7585C141.352 14.8708 141.39 15.0276 141.362 15.2004Z" fill="black"></path><path d="M133.858 11.5818L134.019 10.5634L133.662 10.5551H131.956L133.141 3.03968C133.145 3.01699 133.157 2.99584 133.174 2.98082C133.192 2.9658 133.214 2.95752 133.238 2.95752H136.113C137.068 2.95752 137.727 3.15619 138.071 3.54831C138.232 3.73227 138.335 3.92449 138.385 4.13604C138.437 4.35801 138.438 4.62321 138.387 4.94666L138.383 4.97027V5.17752L138.544 5.26889C138.68 5.34093 138.788 5.4234 138.871 5.51783C139.009 5.67511 139.098 5.87501 139.136 6.11199C139.175 6.35573 139.162 6.64576 139.098 6.97412C139.024 7.35184 138.905 7.68081 138.745 7.94999C138.597 8.19802 138.409 8.4037 138.185 8.56317C137.972 8.71462 137.718 8.82961 137.432 8.90322C137.154 8.9755 136.837 9.01203 136.49 9.01203H136.266C136.106 9.01203 135.951 9.06966 135.829 9.17301C135.706 9.27847 135.625 9.4225 135.6 9.58012L135.584 9.67182L135.3 11.4668L135.287 11.5327C135.284 11.5537 135.278 11.5641 135.27 11.5711C135.262 11.5775 135.251 11.5818 135.24 11.5818H133.858Z" fill="black"></path><path d="M138.697 4.99414C138.688 5.04902 138.678 5.10512 138.667 5.16276C138.288 7.1099 136.991 7.78256 135.334 7.78256H134.49C134.287 7.78256 134.116 7.92971 134.085 8.12961L133.653 10.8693L133.53 11.6459C133.51 11.7771 133.611 11.8954 133.744 11.8954H135.24C135.417 11.8954 135.568 11.7667 135.596 11.5919L135.61 11.5159L135.892 9.72783L135.91 9.62978C135.938 9.45441 136.089 9.32565 136.266 9.32565H136.49C137.939 9.32565 139.075 8.737 139.406 7.03356C139.545 6.32197 139.473 5.72781 139.106 5.30992C138.995 5.18391 138.858 5.07937 138.697 4.99414Z" fill="#818181"></path><path d="M138.3 4.83607C138.242 4.81921 138.182 4.80388 138.121 4.79009C138.059 4.7766 137.996 4.76464 137.931 4.75422C137.703 4.71743 137.454 4.69995 137.187 4.69995H134.933C134.878 4.69995 134.825 4.71252 134.778 4.73521C134.674 4.78518 134.597 4.8836 134.578 5.00408L134.098 8.04115L134.084 8.12974C134.116 7.92985 134.287 7.78268 134.489 7.78268H135.333C136.99 7.78268 138.288 7.10973 138.667 5.1629C138.678 5.10526 138.688 5.04915 138.696 4.99428C138.601 4.94338 138.497 4.89985 138.385 4.86274C138.357 4.85355 138.329 4.84466 138.3 4.83607Z" fill="black"></path><path d="M134.578 5.00397C134.597 4.88348 134.674 4.78507 134.778 4.7354C134.825 4.71271 134.878 4.70014 134.933 4.70014H137.187C137.454 4.70014 137.704 4.71761 137.931 4.75441C137.996 4.76483 138.059 4.77679 138.121 4.79027C138.182 4.80408 138.242 4.81941 138.3 4.83626C138.329 4.84485 138.357 4.85374 138.385 4.86263C138.497 4.89973 138.601 4.94357 138.697 4.99416C138.81 4.2746 138.696 3.78467 138.307 3.34104C137.878 2.85265 137.104 2.64355 136.113 2.64355H133.237C133.035 2.64355 132.863 2.79071 132.831 2.99091L131.633 10.5836C131.61 10.7338 131.726 10.8693 131.877 10.8693H133.653L134.098 8.04103L134.578 5.00397Z" fill="black"></path><path fill-rule="evenodd" clip-rule="evenodd" d="M77.0114 15.7672C80.1711 15.7672 82.7326 13.1761 82.7326 9.97968C82.7326 6.78331 80.1711 4.19214 77.0114 4.19214C75.5953 4.19214 74.2994 4.71261 73.3004 5.57477C72.3013 4.71262 71.0054 4.19216 69.5893 4.19216C66.4296 4.19216 63.8682 6.78333 63.8682 9.9797C63.8682 13.1761 66.4296 15.7673 69.5893 15.7673C71.0054 15.7673 72.3013 15.2468 73.3004 14.3846C74.2994 15.2468 75.5953 15.7672 77.0114 15.7672Z" fill="black"></path><path fill-rule="evenodd" clip-rule="evenodd" d="M73.3003 14.3846C74.5304 13.3231 75.3104 11.7435 75.3104 9.97968C75.3104 8.21584 74.5304 6.63628 73.3003 5.57474C74.2993 4.7126 75.5952 4.19214 77.0113 4.19214C80.171 4.19214 82.7325 6.78331 82.7325 9.97968C82.7325 13.1761 80.171 15.7672 77.0113 15.7672C75.5952 15.7672 74.2993 15.2468 73.3003 14.3846Z" fill="#7D7D7D"></path><path fill-rule="evenodd" clip-rule="evenodd" d="M73.3006 14.3846C74.5307 13.3231 75.3107 11.7435 75.3107 9.97965C75.3107 8.2158 74.5307 6.63625 73.3006 5.57471C72.0705 6.63625 71.2905 8.2158 71.2905 9.97965C71.2905 11.7435 72.0705 13.3231 73.3006 14.3846Z" fill="#5E5E5E"></path><path fill-rule="evenodd" clip-rule="evenodd" d="M95.4843 7.12646L92.7388 13.2022H96.0255L96.433 12.2335H97.3644L97.7719 13.2022H101.39V12.4629L101.712 13.2022H103.583L103.906 12.4472V13.2022H111.43L112.345 12.2587L113.201 13.2022L117.066 13.21L114.312 10.1813L117.066 7.12646H113.261L112.371 8.0526L111.541 7.12646H103.356L102.653 8.69467L101.934 7.12646H98.6538V7.84067L98.2889 7.12646H95.4843ZM106.72 7.98929H111.041L112.362 9.41675L113.726 7.98929H115.048L113.04 10.1805L115.048 12.3465H113.666L112.345 10.9024L110.974 12.3465H106.72V7.98929ZM107.787 9.68785V8.89198V8.89121H110.483L111.659 10.164L110.431 11.4438H107.787V10.5749H110.144V9.68785H107.787ZM96.1203 7.98929H97.7224L99.5435 12.1093V7.98929H101.299L102.705 10.9433L104.002 7.98929H105.748V12.349H104.685L104.677 8.93277L103.127 12.349H102.177L100.619 8.93277V12.349H98.4331L98.0187 11.3716H95.7797L95.3662 12.3482H94.195L96.1203 7.98929ZM96.1623 10.468L96.8999 8.72687L97.6367 10.468H96.1623Z" fill="black"></path><path fill-rule="evenodd" clip-rule="evenodd" d="M39.3889 13.631H37.6112L36.2781 8.54535C36.2149 8.31141 36.0805 8.10459 35.8829 8.00711C35.3897 7.76215 34.8463 7.5672 34.2534 7.46888V7.27308H37.1172C37.5124 7.27308 37.8088 7.5672 37.8582 7.90879L38.5499 11.5773L40.3267 7.27308H42.055L39.3889 13.631ZM43.0431 13.631H41.3642L42.7466 7.27308H44.4255L43.0431 13.631ZM46.5977 9.03445C46.6471 8.69201 46.9435 8.49621 47.2893 8.49621C47.8328 8.44705 48.4248 8.54538 48.9188 8.78949L49.2153 7.42059C48.7212 7.22479 48.1778 7.12646 47.6846 7.12646C46.0551 7.12646 44.8694 8.00714 44.8694 9.2294C44.8694 10.1592 45.7092 10.6475 46.3021 10.9416C46.9435 11.2349 47.1905 11.4307 47.1411 11.7239C47.1411 12.1639 46.6471 12.3597 46.1539 12.3597C45.561 12.3597 44.9682 12.213 44.4256 11.9681L44.1292 13.3378C44.722 13.5819 45.3634 13.6802 45.9563 13.6802C47.7834 13.7286 48.9188 12.8487 48.9188 11.5281C48.9188 9.86511 46.5977 9.76764 46.5977 9.03445ZM54.7946 13.631L53.4615 7.27308H52.0297C51.7332 7.27308 51.4368 7.46888 51.338 7.76215L48.8695 13.631H50.5978L50.9428 12.7021H53.0663L53.2639 13.631H54.7946ZM52.2766 8.98526L52.7698 11.3815H51.3873L52.2766 8.98526Z" fill="black"></path><g clip-path="url(#clip0_27_268)"><path d="M4.19189 4.19165H4.42485V10.3769H4.19189V4.19165ZM4.6578 4.19165H4.89075V10.3769H4.6578V4.19165ZM6.05654 4.19165H6.28949V10.3769H6.05654V4.19165ZM10.5909 4.19165H10.8239V10.3769H10.5909V4.19165ZM12.1068 4.19165H12.3398V10.3769H12.1068V4.19165ZM13.5768 4.19165H13.8097V10.3769H13.5768V4.19165ZM13.9556 4.19165H14.1885V10.3769H13.9559L13.9556 4.19165ZM14.335 4.19165H14.5679V10.3769H14.335V4.19165ZM14.7613 4.19165H14.9943V10.3769H14.7614L14.7613 4.19165ZM15.1876 4.19165H15.4205V10.3769H15.1876V4.19165ZM16.3727 4.19165H16.6056V10.3769H16.3724L16.3727 4.19165ZM19.311 4.19165H19.544V10.3769H19.311V4.19165ZM22.376 4.19165H22.6089V10.3769H22.3759L22.376 4.19165ZM23.2143 4.19165H23.4473V10.3769H23.2143V4.19165ZM23.8204 4.19165H24.0534V10.3769H23.8204V4.19165ZM24.1933 4.19165H24.4263V10.3769H24.1933V4.19165ZM7.59493 4.19165H7.82788V10.3769H7.59493V4.19165ZM5.2639 4.19165H5.68339V10.3769H5.2639V4.19165ZM8.03212 4.19165H8.45153V10.3769H8.03212V4.19165ZM9.97588 4.19165H10.3953V10.3769H9.97588V4.19165ZM10.971 4.19165H11.3904V10.3769H10.971V4.19165ZM12.5349 4.19165H12.9543V10.3769H12.5349V4.19165ZM16.9936 4.19165H17.646V10.3769H16.9936V4.19165ZM17.8457 4.19165H18.3581V10.3769H17.8452L17.8457 4.19165ZM18.7449 4.19165H19.1643V10.3769H18.7449V4.19165ZM19.9339 4.19165H20.6333V10.3769H19.9339V4.19165ZM21.3034 4.19165H22.0028V10.3769H21.3034V4.19165ZM6.52268 4.19165H7.3615V10.3769H6.52268V4.19165ZM8.69684 4.19165H9.3492V10.3769H8.69684V4.19165Z" fill="black"></path><path d="M4.49414 15.869V12.3287H5.82263C6.04463 12.3202 6.26606 12.3567 6.47355 12.4361C6.63259 12.5041 6.76666 12.6197 6.85731 12.767C6.94716 12.9063 6.99538 13.0685 6.99631 13.2343C6.99632 13.3855 6.95364 13.5337 6.87318 13.6617C6.78253 13.8027 6.65349 13.9149 6.50123 13.9851C6.69662 14.0353 6.87025 14.148 6.99568 14.3061C7.11174 14.4604 7.17253 14.6492 7.16826 14.8422C7.16963 15.0025 7.13373 15.1608 7.06339 15.3048C7.00392 15.4339 6.91458 15.5469 6.80276 15.6346C6.68637 15.7181 6.55458 15.7778 6.41502 15.8101C6.22788 15.853 6.0362 15.8729 5.84424 15.8694L4.49414 15.869ZM4.96308 13.8165H5.72868C5.8782 13.8223 6.02784 13.8085 6.17377 13.7754C6.28058 13.7483 6.37528 13.6864 6.44285 13.5993C6.50575 13.5088 6.53753 13.4003 6.53336 13.2902C6.53552 13.1809 6.50617 13.0732 6.44883 12.9801C6.39411 12.8917 6.30905 12.8263 6.20958 12.7961C6.03307 12.7555 5.85189 12.7389 5.67094 12.7466H4.96324L4.96308 13.8165ZM4.96308 15.4514H5.8444C5.95101 15.4542 6.05767 15.4486 6.1634 15.4346C6.25903 15.4191 6.35084 15.3855 6.43392 15.3356C6.50983 15.2866 6.57143 15.2184 6.61248 15.1379C6.6604 15.0464 6.68456 14.9444 6.68274 14.8411C6.68603 14.7179 6.65058 14.5968 6.58137 14.4948C6.51305 14.397 6.41399 14.3248 6.29993 14.2896C6.13128 14.244 5.95672 14.224 5.78211 14.2303H4.96308V15.4514ZM7.85292 14.1451C7.82321 13.6406 7.99317 13.1447 8.32608 12.7645C8.48298 12.5997 8.67304 12.4701 8.8837 12.3841C9.09437 12.2982 9.32087 12.2579 9.54825 12.2659C9.85876 12.2617 10.1645 12.3428 10.432 12.5004C10.6922 12.6541 10.9009 12.8814 11.032 13.1537C11.1733 13.4502 11.2439 13.7754 11.2382 14.1038C11.2442 14.4377 11.1699 14.7681 11.0216 15.0673C10.887 15.3396 10.6721 15.564 10.4059 15.7102C10.1427 15.8553 9.84677 15.9306 9.54626 15.9288C9.23182 15.934 8.92227 15.8505 8.65305 15.688C8.39402 15.5309 8.18653 15.3016 8.05612 15.0282C7.92165 14.7533 7.85212 14.4512 7.85292 14.1451ZM8.33612 14.1525C8.31602 14.5209 8.4402 14.8826 8.68232 15.161C8.79155 15.2806 8.92516 15.3754 9.07415 15.4389C9.22313 15.5025 9.38401 15.5334 9.54594 15.5294C9.70883 15.5336 9.87069 15.5024 10.0204 15.4381C10.1701 15.3739 10.3042 15.2779 10.4134 15.157C10.6577 14.8616 10.78 14.4841 10.7552 14.1016C10.7617 13.8426 10.7126 13.5852 10.6112 13.3468C10.5219 13.1412 10.3731 12.9671 10.1839 12.8468C9.9949 12.728 9.77557 12.6664 9.55232 12.6693C9.39412 12.6669 9.23701 12.6958 9.09007 12.7545C8.94313 12.8131 8.80926 12.9003 8.6962 13.011C8.56243 13.1671 8.46158 13.3487 8.39971 13.5447C8.33784 13.7408 8.31621 13.9474 8.33612 14.152V14.1525ZM12.0065 15.8693V12.3287H12.4749V15.451H14.2183V15.869L12.0065 15.8693ZM14.9691 15.8693V12.3287H17.5291V12.7466H15.4374V13.8312H17.396V14.2466H15.4374V15.4514H17.6112V15.8694L14.9691 15.8693ZM19.3423 15.8693V12.7466H18.1753V12.3287H20.9815V12.7466H19.8103V15.869L19.3423 15.8693ZM21.4135 14.1451C21.3842 13.6405 21.5546 13.1447 21.8879 12.7647C22.0448 12.6 22.2348 12.4703 22.4455 12.3844C22.6561 12.2984 22.8826 12.2581 23.11 12.2661C23.4205 12.2619 23.7262 12.343 23.9938 12.5006C24.2539 12.6543 24.4627 12.8817 24.5938 13.1539C24.7351 13.4504 24.8057 13.7756 24.8 14.1041C24.8058 14.438 24.7313 14.7684 24.5829 15.0675C24.4478 15.3403 24.2322 15.5649 23.9652 15.711C23.702 15.856 23.406 15.9313 23.1055 15.9295C22.7909 15.9347 22.4811 15.8511 22.2118 15.6882C21.9533 15.531 21.7464 15.3017 21.6163 15.0284C21.482 14.7534 21.4126 14.4512 21.4135 14.1451ZM21.8967 14.1525C21.8766 14.5209 22.0008 14.8826 22.2429 15.161C22.3522 15.2806 22.4858 15.3754 22.6348 15.4389C22.7838 15.5025 22.9446 15.5334 23.1066 15.5294C23.2699 15.5341 23.4323 15.5032 23.5826 15.439C23.7329 15.3748 23.8675 15.2787 23.977 15.1575C24.2213 14.8621 24.3436 14.4846 24.3188 14.1021C24.3239 13.8428 24.2732 13.5854 24.1704 13.3473C24.081 13.1417 23.9322 12.9676 23.7431 12.8473C23.5541 12.7286 23.3349 12.6669 23.1118 12.6697C22.9536 12.6673 22.7965 12.6963 22.6495 12.755C22.5026 12.8136 22.3687 12.9008 22.2556 13.0115C22.1221 13.1676 22.0215 13.3491 21.9599 13.5451C21.8982 13.7411 21.8767 13.9474 21.8967 14.1519V14.1525Z" fill="black"></path></g><defs><clipPath id="clip0_27_268"><rect width="20.6079" height="11.7378" fill="white" transform="translate(4.19238 4.19189)"></rect></clipPath></defs></svg>