<svg xmlns="http://www.w3.org/2000/svg" width="255" height="61" viewBox="0 0 255 61" fill="none"><path d="M253.302 53.2955C250.538 53.2955 249.463 51.944 248.941 50.439C248.633 51.6061 247.128 53.2955 244.241 53.2955C240.955 53.2955 239.234 51.084 239.234 48.6268C239.234 43.528 245.93 43.4973 248.603 43.3744V41.7465C248.603 40.18 247.62 39.4736 246.268 39.4736C244.733 39.4736 243.842 40.2722 243.842 41.8694H239.695C239.695 39.75 241.077 36.5249 246.176 36.5249C249.647 36.5249 252.688 38.1528 252.688 41.7772V48.2582C252.688 49.6711 253.087 49.9168 254.101 49.9168C254.561 49.9168 254.869 49.8554 254.869 49.8554V53.0805C254.869 53.0805 254.746 53.2955 253.302 53.2955ZM245.408 50.2547C247.005 50.2547 248.603 48.6882 248.603 45.9238V45.7395C246.084 45.8317 243.381 46.2002 243.381 48.6268C243.381 49.6711 244.18 50.2547 245.408 50.2547Z" fill="#140020"></path><path d="M232.413 33.7604V29.3374H236.836V33.7604H232.413ZM232.505 52.9268V36.8934H236.744V52.9268H232.505Z" fill="#140020"></path><path d="M224.795 45.4631V52.9269H220.556V36.8935H224.795V40.0572C225.072 39.0436 227.007 36.5249 230.57 36.5249V40.7636C227.621 40.5793 224.795 41.9922 224.795 45.4631Z" fill="#140020"></path><path d="M208.095 34.1289L210.521 28.9688H214.545L210.859 34.1289H208.095ZM217.432 53.2953C214.668 53.2953 213.593 51.9438 213.071 50.4388C212.764 51.606 211.259 53.2953 208.371 53.2953C205.085 53.2953 203.365 51.0838 203.365 48.6266C203.365 43.5278 210.061 43.4971 212.733 43.3743V41.7463C212.733 40.1799 211.75 39.4734 210.399 39.4734C208.863 39.4734 207.972 40.272 207.972 41.8692H203.825C203.825 39.7498 205.208 36.5247 210.306 36.5247C213.777 36.5247 216.818 38.1526 216.818 41.7771V48.258C216.818 49.6709 217.217 49.9166 218.231 49.9166C218.692 49.9166 218.999 49.8552 218.999 49.8552V53.0803C218.999 53.0803 218.876 53.2953 217.432 53.2953ZM209.538 50.2545C211.136 50.2545 212.733 48.688 212.733 45.9236V45.7393C210.214 45.8315 207.511 46.2001 207.511 48.6266C207.511 49.6709 208.31 50.2545 209.538 50.2545Z" fill="#140020"></path><path d="M190.554 44.4495V52.9269H186.315V36.8935H190.554V39.1971C190.922 38.46 192.489 36.5249 195.468 36.5249C200.045 36.5249 201.15 40.2107 201.15 44.5109V52.9269H196.912V44.2345C196.912 41.7772 196.359 40.0265 194.086 40.0265C192.458 40.0265 190.554 41.0708 190.554 44.4495Z" fill="#140020"></path><path d="M167.653 44.9102C167.653 40.395 170.633 36.5249 175.793 36.5249C180.953 36.5249 183.932 40.395 183.932 44.9102C183.932 49.4254 180.953 53.2955 175.793 53.2955C170.633 53.2955 167.653 49.4254 167.653 44.9102ZM175.793 39.4736C173.243 39.4736 171.892 41.1322 171.892 44.9102C171.892 48.6882 173.243 50.3468 175.793 50.3468C178.342 50.3468 179.724 48.6882 179.694 44.9102C179.663 41.1322 178.342 39.4736 175.793 39.4736Z" fill="#140020"></path><path d="M160.832 33.7604V29.3374H165.255V33.7604H160.832ZM160.924 52.9268V36.8934H165.163V52.9268H160.924Z" fill="#140020"></path><path d="M153.085 52.9268V29.3374H157.323V52.9268H153.085Z" fill="#140020"></path><path d="M145.157 33.7604V29.3374H149.58V33.7604H145.157ZM145.25 52.9268V36.8934H149.488V52.9268H145.25Z" fill="#140020"></path><path d="M129.359 47.4597L134.581 29.7983H141.277V52.927H136.854V34.0371L131.509 52.927H127.209L121.865 34.0371V52.927H117.442V29.7983H124.138L129.359 47.4597Z" fill="#140020"></path><path d="M103.764 52.927L101.768 47.0297H93.3824L91.3859 52.927H86.7478L95.1024 29.7983H100.201L108.494 52.927H103.764ZM97.5904 34.7128L94.6724 43.2517H100.478L97.5904 34.7128Z" fill="#140020"></path><path d="M80.385 52.9269V47.8589H85.453V52.9269H80.385Z" fill="#140020"></path><path d="M72.4751 52.927V29.7983H76.8981V52.927H72.4751Z" fill="#140020"></path><path d="M138.047 16.7151C138.047 19.375 136.409 22.5759 132.576 22.5759C128.79 22.5759 127.121 19.375 127.121 16.7151C127.121 14.0552 128.79 10.8994 132.576 10.8994C136.378 10.8994 138.047 14.0552 138.047 16.7151ZM132.576 12.7478C130.728 12.7478 129.285 13.8148 129.285 16.7151C129.285 19.6004 130.728 20.7275 132.576 20.7275C134.425 20.7275 135.883 19.6004 135.883 16.7151C135.883 13.8148 134.425 12.7478 132.576 12.7478Z" fill="#140020"></path><path d="M116.403 22.3954V11.0796H120.431C125.029 11.0796 126.307 14.0551 126.307 16.715C126.307 19.3748 125.059 22.3954 120.431 22.3954H116.403ZM120.701 12.928H118.567V20.547H120.701C122.55 20.547 124.143 19.9008 124.143 16.715C124.143 13.5441 122.55 12.928 120.701 12.928Z" fill="#140020"></path><path d="M114.91 16.7151C114.91 19.375 113.272 22.5759 109.44 22.5759C105.653 22.5759 103.985 19.375 103.985 16.7151C103.985 14.0552 105.653 10.8994 109.44 10.8994C113.242 10.8994 114.91 14.0552 114.91 16.7151ZM109.44 12.7478C107.591 12.7478 106.149 13.8148 106.149 16.7151C106.149 19.6004 107.591 20.7275 109.44 20.7275C111.288 20.7275 112.746 19.6004 112.746 16.7151C112.746 13.8148 111.288 12.7478 109.44 12.7478Z" fill="#140020"></path><path d="M94.1386 11.0796H103.666V12.928H99.9843V22.3954H97.8204V12.928H94.1386V11.0796Z" fill="#140020"></path><path d="M87.6927 10.5837L88.8799 8.05908H90.8485L89.0452 10.5837H87.6927ZM84.8975 22.3955V11.0796H93.5084V12.928H87.0615V15.648H92.9223V17.4964H87.0615V20.5471H93.5084V22.3955H84.8975Z" fill="#140020"></path><path d="M76.988 19.7205L79.5427 11.0796H82.8187V22.3954H80.6547V13.1534L78.0399 22.3954H75.936L73.3212 13.1534V22.3954H71.1572V11.0796H74.4333L76.988 19.7205Z" fill="#140020"></path><path d="M21.2052 4.34348C26.5656 -1.01682 35.256 -1.01685 40.6163 4.34348L56.9542 20.6814C62.3146 26.0417 62.3145 34.7322 56.9542 40.0925L40.6163 56.4314C40.3916 56.6561 40.1599 56.87 39.924 57.0759C39.3486 56.4468 38.7146 55.8304 38.0177 55.2234L37.2257 54.5339L37.5441 53.4812C38.2185 51.2541 38.7462 48.3547 38.7462 46.8767V46.1111L34.714 46.1042L30.6808 46.0974L31.5939 45.8581C33.8922 45.2557 36.0022 44.082 37.4093 42.6238L38.2443 41.7585L38.0597 41.2351C37.5001 39.6482 36.4593 38.3137 34.6827 36.905L33.6339 36.074L34.8458 35.4519C37.0236 34.3345 39.0617 32.8535 41.4679 30.6394C42.6656 29.5374 45.6241 26.3953 45.6241 26.2253C45.6229 26.1748 44.3441 25.1058 42.7823 23.8493L39.9415 21.5642L39.2374 23.0466C38.85 23.8622 38.551 24.5628 38.5724 24.6032C38.5955 24.6446 39.2894 25.0889 40.1163 25.5906C40.9415 26.091 41.6173 26.5361 41.6222 26.5827C41.6222 26.777 39.0305 29.658 37.7579 30.8777C36.3015 32.2736 34.2206 33.9076 33.1241 34.5163L32.4884 34.8689L32.2892 34.3913C31.8915 33.4387 32.0649 32.8897 33.9249 29.2087C35.5305 26.0308 35.6202 25.814 35.6202 25.1159C35.6202 24.1977 35.2902 23.6477 34.4991 23.2478C33.9631 22.9768 33.8168 22.9656 30.6027 22.9656H27.2648L26.3468 24.1501C25.8423 24.8014 25.382 25.3362 25.3243 25.3386C25.2669 25.3377 25.2386 24.4545 25.2618 23.3728C25.2982 21.6757 25.3394 21.3429 25.5548 20.9763C25.9165 20.361 26.5209 20.105 28.1085 19.8962C30.085 19.6364 30.504 19.363 30.3058 18.4597C30.2085 18.0164 30.2016 18.0154 29.6661 18.3464C29.416 18.5011 29.1487 18.5743 29.0031 18.5281C28.6948 18.4302 27.435 17.0752 26.9699 16.3415C26.776 16.0357 26.6173 15.6345 26.6173 15.4499C26.6172 15.2653 26.419 14.785 26.1769 14.3825C25.6576 13.5198 25.4465 12.8234 25.5548 12.3298C25.6962 11.6855 25.8859 11.6673 26.6261 12.2282C27.894 13.1889 29.3566 13.6721 30.4933 13.5056C31.3308 13.383 31.5795 13.2589 31.6652 12.9177C31.8326 12.2502 32.4769 12.4579 32.7433 13.2654C32.9182 13.7955 32.6688 14.5965 32.2755 14.7693C32.1208 14.8372 31.9943 14.9332 31.9943 14.9822C31.9943 15.0311 32.1634 15.5387 32.3702 16.1101C33.047 17.979 33.9607 18.8235 35.7159 19.2038C36.1103 19.2893 36.5725 19.3924 36.7433 19.4324C37.0283 19.4992 37.0115 19.4566 36.5382 18.9187C35.9303 18.2275 35.5655 17.3033 34.8741 14.7068C34.2656 12.4212 33.7583 11.0849 33.1368 10.1228C32.2163 8.6978 31.0782 8.05292 29.3683 7.98899C28.6888 7.96359 28.1419 8.00993 27.8527 8.1179C26.7958 8.51285 26.0305 9.21475 25.5441 10.2351C25.412 10.5123 25.1914 10.7419 24.9874 10.8132C24.4705 10.9936 24.1445 11.4238 23.9943 12.1238C23.8826 12.6448 23.908 13.1082 24.1349 14.6892C24.515 17.3376 24.4614 17.6156 23.007 20.5261C21.9936 22.5541 21.2404 24.5599 21.2404 25.2322C21.2404 25.4536 21.3645 25.4685 23.2521 25.4685H25.2628L24.8146 26.0798C23.5969 27.7394 23.7346 29.3005 25.2111 30.5681C27.1025 32.1917 27.3281 32.5965 27.2013 34.1345C27.1478 34.7823 26.9931 35.2831 26.5441 36.2615C25.5291 38.4729 24.8444 40.8686 24.4972 43.4216C24.4223 43.972 24.3315 44.607 24.295 44.8327C24.2314 45.2276 24.2542 45.2546 24.8917 45.5359C25.949 46.0022 27.2241 46.236 28.7081 46.2361H30.0626L30.4142 47.7683C30.8333 49.5942 31.8856 52.8162 32.631 54.5554C32.926 55.2435 33.544 56.3702 34.004 57.0583C34.5507 57.8759 35.0786 58.7338 35.5919 59.6296C34.2787 60.105 32.9082 60.3744 31.5294 60.4363C31.2137 58.861 30.6522 57.3083 29.7833 55.5749C29.4086 54.8273 29.1304 54.1408 29.1652 54.0505C29.2005 53.9591 29.5872 53.3886 30.0255 52.782C30.4639 52.1751 30.9241 51.5244 31.048 51.3347L31.2726 50.99H24.4572L24.5392 51.9001C24.5846 52.4006 24.7641 53.4844 24.9376 54.3083C25.3983 56.4957 25.6837 58.0132 25.8673 59.4939C24.1696 58.8243 22.578 57.8041 21.2052 56.4314L4.86634 40.0925C-0.493596 34.7321 -0.492897 26.0416 4.86731 20.6814L21.2052 4.34348Z" fill="#FF0083"></path></svg>